<?xml version="1.0" encoding="UTF-8" standalone="no"?>
<!-- Created with Inkscape (http://www.inkscape.org/) -->

<svg
   xmlns:dc="http://purl.org/dc/elements/1.1/"
   xmlns:cc="http://creativecommons.org/ns#"
   xmlns:rdf="http://www.w3.org/1999/02/22-rdf-syntax-ns#"
   xmlns:svg="http://www.w3.org/2000/svg"
   xmlns="http://www.w3.org/2000/svg"
   version="1.1"
   width="510.90909"
   height="237.7812"
   id="svg3775">
  <defs
     id="defs3777" />
  <metadata
     id="metadata3780">
    <rdf:RDF>
      <cc:Work
         rdf:about="">
        <dc:format>image/svg+xml</dc:format>
        <dc:type
           rdf:resource="http://purl.org/dc/dcmitype/StillImage" />
        <dc:title></dc:title>
      </cc:Work>
    </rdf:RDF>
  </metadata>
  <g
     transform="translate(-163.40625,-353.46875)"
     id="layer1">
    <g
       transform="matrix(0.96784072,-0.25156378,0.25156378,0.96784072,0,0)"
       id="text5795-43"
       style="font-size:40px;font-style:normal;font-weight:normal;line-height:125%;letter-spacing:0px;word-spacing:0px;fill:#000000;fill-opacity:1;stroke:none;font-family:Sans">
      <path
         d="m 315.3024,582.20677 18.768,0 0,3.36 -15.024,0 0,9.312 13.632,0 0,3.36 -13.632,0 0,10.032 15.024,0 0,3.408 -18.768,0 0,-29.472"
         id="path3885"
         style="font-size:48px;font-family:calibre;-inkscape-font-specification:calibre" />
      <path
         d="m 354.8844,593.34277 c 1.59998,-2.27198 3.75998,-3.40798 6.48,-3.408 2.14397,2e-5 3.79197,0.68802 4.944,2.064 1.18397,1.37602 1.77597,3.23202 1.776,5.568 l 0,14.112 -3.648,0 0,-13.536 c -3e-5,-1.53598 -0.33603,-2.73598 -1.008,-3.6 -0.67203,-0.89598 -1.68002,-1.34398 -3.024,-1.344 -1.08802,2e-5 -2.06402,0.35202 -2.928,1.056 -0.86402,0.67202 -1.45602,1.58402 -1.776,2.736 l 0,14.688 -3.6,0 0,-13.536 c -10e-6,-1.53598 -0.33601,-2.73598 -1.008,-3.6 -0.67201,-0.89598 -1.68001,-1.34398 -3.024,-1.344 -1.08801,2e-5 -2.06401,0.35202 -2.928,1.056 -0.86401,0.67202 -1.45601,1.58402 -1.776,2.736 l 0,14.688 -3.6,0 0,-21.312 3.6,0 0,2.496 c 1.21599,-1.95198 3.13599,-2.92798 5.76,-2.928 2.68799,2e-5 4.60798,1.13602 5.76,3.408"
         id="path3887"
         style="font-size:48px;font-family:calibre;-inkscape-font-specification:calibre" />
      <path
         d="m 391.16265,590.36677 0,21.312 -3.648,0 0,-2.688 c -0.64002,0.896 -1.50401,1.648 -2.592,2.256 -1.08801,0.576 -2.28801,0.864 -3.6,0.864 -2.36801,0 -4.20801,-0.704 -5.52,-2.112 -1.28,-1.40799 -1.92,-3.29599 -1.92,-5.664 l 0,-13.968 3.648,0 0,13.392 c -10e-6,1.56801 0.38399,2.80001 1.152,3.696 0.76799,0.89601 1.93599,1.344 3.504,1.344 1.21599,0 2.30399,-0.36799 3.264,-1.104 0.99199,-0.73599 1.67998,-1.69599 2.064,-2.88 l 0,-14.448 3.648,0"
         id="path3889"
         style="font-size:48px;font-family:calibre;-inkscape-font-specification:calibre" />
      <path
         d="m 401.1144,580.47877 0,31.2 -3.6,0 0,-31.2 3.6,0"
         id="path3891"
         style="font-size:48px;font-family:calibre;-inkscape-font-specification:calibre" />
      <path
         d="m 423.00165,611.67877 -3.456,0 0,-1.584 c -0.44801,0.48 -1.20001,0.928 -2.256,1.344 -1.05601,0.416 -2.17601,0.624 -3.36,0.624 -2.24001,0 -4.128,-0.624 -5.664,-1.872 -1.504,-1.248 -2.256,-2.89599 -2.256,-4.944 0,-1.95199 0.784,-3.55199 2.352,-4.8 1.568,-1.24799 3.50399,-1.87198 5.808,-1.872 1.05599,2e-5 2.09599,0.17601 3.12,0.528 1.02399,0.35201 1.77599,0.75201 2.256,1.2 l 0,-2.688 c -1e-5,-1.37598 -0.41601,-2.47998 -1.248,-3.312 -0.80001,-0.83198 -1.95201,-1.24798 -3.456,-1.248 -2.24001,2e-5 -3.69601,0.97602 -4.368,2.928 l -3.552,0 c 0.352,-1.79198 1.248,-3.24798 2.688,-4.368 1.47199,-1.11998 3.23199,-1.67998 5.28,-1.68 2.52799,2e-5 4.51199,0.67202 5.952,2.016 1.43998,1.34402 2.15998,3.18402 2.16,5.52 l 0,14.208 m -3.456,-5.28 0,-2.208 c -0.32001,-0.76799 -0.96001,-1.39199 -1.92,-1.872 -0.92801,-0.51199 -1.95201,-0.76799 -3.072,-0.768 -1.40801,10e-6 -2.60801,0.32001 -3.6,0.96 -0.992,0.64001 -1.488,1.55201 -1.488,2.736 0,1.21601 0.496,2.16001 1.488,2.832 0.99199,0.64 2.19199,0.96 3.6,0.96 1.11999,0 2.14399,-0.24 3.072,-0.72 0.95999,-0.51199 1.59999,-1.15199 1.92,-1.92"
         id="path3893"
         style="font-size:48px;font-family:calibre;-inkscape-font-specification:calibre" />
      <path
         d="m 429.92865,606.30277 0,-12.864 -3.456,0 0,-3.072 3.456,0 0,-5.616 3.6,0 0,5.616 5.136,0 0,3.072 -5.136,0 0,12.48 c -1e-5,1.98401 0.94399,2.976 2.832,2.976 0.99199,0 1.91999,-0.28799 2.784,-0.864 l 0,3.36 c -0.89601,0.48 -2.01601,0.72 -3.36,0.72 -1.79201,0 -3.21601,-0.48 -4.272,-1.44 -1.056,-0.992 -1.584,-2.44799 -1.584,-4.368"
         id="path3895"
         style="font-size:48px;font-family:calibre;-inkscape-font-specification:calibre" />
      <path
         d="m 447.70815,590.36677 0,21.312 -3.6,0 0,-21.312 3.6,0 m -0.192,-8.064 c 0.47999,0.44803 0.71999,0.99203 0.72,1.632 -1e-5,0.64003 -0.24001,1.18403 -0.72,1.632 -0.44801,0.44803 -0.992,0.67203 -1.632,0.672 -0.64,3e-5 -1.184,-0.22397 -1.632,-0.672 -0.448,-0.44797 -0.672,-0.99197 -0.672,-1.632 0,-0.63997 0.224,-1.18397 0.672,-1.632 0.448,-0.44797 0.992,-0.67197 1.632,-0.672 0.64,3e-5 1.18399,0.22403 1.632,0.672"
         id="path3897"
         style="font-size:48px;font-family:calibre;-inkscape-font-specification:calibre" />
      <path
         d="m 454.1394,611.67877 0,-21.312 3.6,0 0,2.688 c 0.67199,-0.89598 1.55199,-1.63198 2.64,-2.208 1.11999,-0.60798 2.33599,-0.91198 3.648,-0.912 2.36799,2e-5 4.20798,0.70402 5.52,2.112 1.31198,1.40802 1.96798,3.29602 1.968,5.664 l 0,13.968 -3.648,0 0,-13.392 c -2e-5,-1.53598 -0.40002,-2.75198 -1.2,-3.648 -0.76801,-0.92798 -1.93601,-1.39198 -3.504,-1.392 -1.24801,2e-5 -2.36801,0.38402 -3.36,1.152 -0.99201,0.73602 -1.68001,1.68002 -2.064,2.832 l 0,14.448 -3.6,0"
         id="path3899"
         style="font-size:48px;font-family:calibre;-inkscape-font-specification:calibre" />
      <path
         d="m 491.5449,610.23877 0,-1.584 c -0.57602,0.8 -1.40801,1.488 -2.496,2.064 -1.05601,0.544 -2.20801,0.816 -3.456,0.816 -2.97601,0 -5.31201,-1.056 -7.008,-3.168 -1.696,-2.11199 -2.544,-4.65599 -2.544,-7.632 0,-3.00798 0.848,-5.55198 2.544,-7.632 1.69599,-2.11198 4.03199,-3.16798 7.008,-3.168 1.24799,2e-5 2.39999,0.27202 3.456,0.816 1.08799,0.54402 1.91998,1.21602 2.496,2.016 l 0,-2.4 3.648,0 0,19.632 c -2e-5,3.392 -0.88002,5.952 -2.64,7.68 -1.72802,1.75999 -4.01601,2.63999 -6.864,2.64 -2.56001,-10e-6 -4.64001,-0.62401 -6.24,-1.872 -1.568,-1.248 -2.528,-2.976 -2.88,-5.184 l 3.552,0 c 0.60799,2.656 2.46399,3.984 5.568,3.984 3.90399,0 5.85598,-2.336 5.856,-7.008 m 0,-5.28 0,-8.496 c -1.21602,-2.20798 -3.02401,-3.31198 -5.424,-3.312 -1.98401,2e-5 -3.55201,0.70402 -4.704,2.112 -1.12001,1.40802 -1.68,3.23202 -1.68,5.472 0,2.24001 0.55999,4.06401 1.68,5.472 1.15199,1.37601 2.71999,2.06401 4.704,2.064 2.39999,10e-6 4.20798,-1.10399 5.424,-3.312"
         id="path3901"
         style="font-size:48px;font-family:calibre;-inkscape-font-specification:calibre" />
      <path
         d="m 319.0944,642.20677 0,29.472 -3.792,0 0,-29.472 3.792,0"
         id="path3903"
         style="font-size:48px;font-family:calibre;-inkscape-font-specification:calibre" />
      <path
         d="m 325.79565,671.67877 0,-21.312 3.6,0 0,2.688 c 0.67199,-0.89598 1.55199,-1.63198 2.64,-2.208 1.11999,-0.60798 2.33599,-0.91198 3.648,-0.912 2.36799,2e-5 4.20798,0.70402 5.52,2.112 1.31198,1.40802 1.96798,3.29602 1.968,5.664 l 0,13.968 -3.648,0 0,-13.392 c -2e-5,-1.53598 -0.40002,-2.75198 -1.2,-3.648 -0.76801,-0.92798 -1.93601,-1.39198 -3.504,-1.392 -1.24801,2e-5 -2.36801,0.38402 -3.36,1.152 -0.99201,0.73602 -1.68001,1.68002 -2.064,2.832 l 0,14.448 -3.6,0"
         id="path3905"
         style="font-size:48px;font-family:calibre;-inkscape-font-specification:calibre" />
      <path
         d="m 350.24115,666.30277 0,-12.864 -3.456,0 0,-3.072 3.456,0 0,-5.616 3.6,0 0,5.616 5.136,0 0,3.072 -5.136,0 0,12.48 c -1e-5,1.98401 0.94399,2.976 2.832,2.976 0.99199,0 1.91999,-0.28799 2.784,-0.864 l 0,3.36 c -0.89601,0.48 -2.01601,0.72 -3.36,0.72 -1.79201,0 -3.21601,-0.48 -4.272,-1.44 -1.056,-0.992 -1.584,-2.44799 -1.584,-4.368"
         id="path3907"
         style="font-size:48px;font-family:calibre;-inkscape-font-specification:calibre" />
      <path
         d="m 377.5794,665.29477 3.408,0 c -0.38402,2.08001 -1.32802,3.744 -2.832,4.992 -1.50401,1.216 -3.42401,1.824 -5.76,1.824 -2.91201,0 -5.28001,-1.008 -7.104,-3.024 -1.792,-2.04799 -2.688,-4.71999 -2.688,-8.016 0,-3.23198 0.896,-5.88798 2.688,-7.968 1.79199,-2.11198 4.12799,-3.16798 7.008,-3.168 2.84799,2e-5 5.05598,0.96002 6.624,2.88 1.56798,1.88802 2.35198,4.41602 2.352,7.584 l 0,1.296 -15.072,0 c 0.032,2.24001 0.60799,4.03201 1.728,5.376 1.15199,1.31201 2.63999,1.968 4.464,1.968 1.34399,0 2.46399,-0.32 3.36,-0.96 0.92799,-0.67199 1.53598,-1.59999 1.824,-2.784 m -5.232,-12.288 c -1.60001,2e-5 -2.94401,0.52802 -4.032,1.584 -1.08801,1.05602 -1.76,2.51202 -2.016,4.368 l 11.328,0 c -0.032,-1.69598 -0.49602,-3.10398 -1.392,-4.224 -0.89601,-1.15198 -2.19201,-1.72798 -3.888,-1.728"
         id="path3909"
         style="font-size:48px;font-family:calibre;-inkscape-font-specification:calibre" />
      <path
         d="m 389.6769,640.47877 0,31.2 -3.6,0 0,-31.2 3.6,0"
         id="path3911"
         style="font-size:48px;font-family:calibre;-inkscape-font-specification:calibre" />
      <path
         d="m 399.70815,640.47877 0,31.2 -3.6,0 0,-31.2 3.6,0"
         id="path3913"
         style="font-size:48px;font-family:calibre;-inkscape-font-specification:calibre" />
      <path
         d="m 409.7394,650.36677 0,21.312 -3.6,0 0,-21.312 3.6,0 m -0.192,-8.064 c 0.47999,0.44803 0.71999,0.99203 0.72,1.632 -1e-5,0.64003 -0.24001,1.18403 -0.72,1.632 -0.44801,0.44803 -0.992,0.67203 -1.632,0.672 -0.64,3e-5 -1.184,-0.22397 -1.632,-0.672 -0.448,-0.44797 -0.672,-0.99197 -0.672,-1.632 0,-0.63997 0.224,-1.18397 0.672,-1.632 0.448,-0.44797 0.992,-0.67197 1.632,-0.672 0.64,3e-5 1.18399,0.22403 1.632,0.672"
         id="path3915"
         style="font-size:48px;font-family:calibre;-inkscape-font-specification:calibre" />
      <path
         d="m 430.13865,670.23877 0,-1.584 c -0.57602,0.8 -1.40801,1.488 -2.496,2.064 -1.05601,0.544 -2.20801,0.816 -3.456,0.816 -2.97601,0 -5.31201,-1.056 -7.008,-3.168 -1.696,-2.11199 -2.544,-4.65599 -2.544,-7.632 0,-3.00798 0.848,-5.55198 2.544,-7.632 1.69599,-2.11198 4.03199,-3.16798 7.008,-3.168 1.24799,2e-5 2.39999,0.27202 3.456,0.816 1.08799,0.54402 1.91998,1.21602 2.496,2.016 l 0,-2.4 3.648,0 0,19.632 c -2e-5,3.392 -0.88002,5.952 -2.64,7.68 -1.72802,1.75999 -4.01601,2.63999 -6.864,2.64 -2.56001,-10e-6 -4.64001,-0.62401 -6.24,-1.872 -1.568,-1.248 -2.528,-2.976 -2.88,-5.184 l 3.552,0 c 0.60799,2.656 2.46399,3.984 5.568,3.984 3.90399,0 5.85598,-2.336 5.856,-7.008 m 0,-5.28 0,-8.496 c -1.21602,-2.20798 -3.02401,-3.31198 -5.424,-3.312 -1.98401,2e-5 -3.55201,0.70402 -4.704,2.112 -1.12001,1.40802 -1.68,3.23202 -1.68,5.472 0,2.24001 0.55999,4.06401 1.68,5.472 1.15199,1.37601 2.71999,2.06401 4.704,2.064 2.39999,10e-6 4.20798,-1.10399 5.424,-3.312"
         id="path3917"
         style="font-size:48px;font-family:calibre;-inkscape-font-specification:calibre" />
      <path
         d="m 453.7044,665.29477 3.408,0 c -0.38402,2.08001 -1.32802,3.744 -2.832,4.992 -1.50401,1.216 -3.42401,1.824 -5.76,1.824 -2.91201,0 -5.28001,-1.008 -7.104,-3.024 -1.792,-2.04799 -2.688,-4.71999 -2.688,-8.016 0,-3.23198 0.896,-5.88798 2.688,-7.968 1.79199,-2.11198 4.12799,-3.16798 7.008,-3.168 2.84799,2e-5 5.05598,0.96002 6.624,2.88 1.56798,1.88802 2.35198,4.41602 2.352,7.584 l 0,1.296 -15.072,0 c 0.032,2.24001 0.60799,4.03201 1.728,5.376 1.15199,1.31201 2.63999,1.968 4.464,1.968 1.34399,0 2.46399,-0.32 3.36,-0.96 0.92799,-0.67199 1.53598,-1.59999 1.824,-2.784 m -5.232,-12.288 c -1.60001,2e-5 -2.94401,0.52802 -4.032,1.584 -1.08801,1.05602 -1.76,2.51202 -2.016,4.368 l 11.328,0 c -0.032,-1.69598 -0.49602,-3.10398 -1.392,-4.224 -0.89601,-1.15198 -2.19201,-1.72798 -3.888,-1.728"
         id="path3919"
         style="font-size:48px;font-family:calibre;-inkscape-font-specification:calibre" />
      <path
         d="m 462.2019,671.67877 0,-21.312 3.6,0 0,2.688 c 0.67199,-0.89598 1.55199,-1.63198 2.64,-2.208 1.11999,-0.60798 2.33599,-0.91198 3.648,-0.912 2.36799,2e-5 4.20798,0.70402 5.52,2.112 1.31198,1.40802 1.96798,3.29602 1.968,5.664 l 0,13.968 -3.648,0 0,-13.392 c -2e-5,-1.53598 -0.40002,-2.75198 -1.2,-3.648 -0.76801,-0.92798 -1.93601,-1.39198 -3.504,-1.392 -1.24801,2e-5 -2.36801,0.38402 -3.36,1.152 -0.99201,0.73602 -1.68001,1.68002 -2.064,2.832 l 0,14.448 -3.6,0"
         id="path3921"
         style="font-size:48px;font-family:calibre;-inkscape-font-specification:calibre" />
      <path
         d="m 486.7914,669.03877 c -1.792,-2.04799 -2.688,-4.71999 -2.688,-8.016 0,-3.29598 0.896,-5.96798 2.688,-8.016 1.79199,-2.04798 4.12799,-3.07198 7.008,-3.072 2.33599,2e-5 4.23999,0.62402 5.712,1.872 1.50398,1.24802 2.44798,2.91202 2.832,4.992 l -3.696,0 c -0.25602,-1.15198 -0.81601,-2.04798 -1.68,-2.688 -0.83201,-0.67198 -1.88801,-1.00798 -3.168,-1.008 -1.82401,2e-5 -3.29601,0.73602 -4.416,2.208 -1.088,1.47202 -1.632,3.37601 -1.632,5.712 0,2.33601 0.544,4.24001 1.632,5.712 1.11999,1.47201 2.59199,2.208 4.416,2.208 1.27999,0 2.33599,-0.31999 3.168,-0.96 0.86399,-0.67199 1.42398,-1.58399 1.68,-2.736 l 3.696,0 c -0.38402,2.08001 -1.32802,3.744 -2.832,4.992 -1.47201,1.248 -3.37601,1.872 -5.712,1.872 -2.88001,0 -5.21601,-1.024 -7.008,-3.072"
         id="path3923"
         style="font-size:48px;font-family:calibre;-inkscape-font-specification:calibre" />
      <path
         d="m 520.36065,665.29477 3.408,0 c -0.38402,2.08001 -1.32802,3.744 -2.832,4.992 -1.50401,1.216 -3.42401,1.824 -5.76,1.824 -2.91201,0 -5.28001,-1.008 -7.104,-3.024 -1.792,-2.04799 -2.688,-4.71999 -2.688,-8.016 0,-3.23198 0.896,-5.88798 2.688,-7.968 1.79199,-2.11198 4.12799,-3.16798 7.008,-3.168 2.84799,2e-5 5.05598,0.96002 6.624,2.88 1.56798,1.88802 2.35198,4.41602 2.352,7.584 l 0,1.296 -15.072,0 c 0.032,2.24001 0.60799,4.03201 1.728,5.376 1.15199,1.31201 2.63999,1.968 4.464,1.968 1.34399,0 2.46399,-0.32 3.36,-0.96 0.92799,-0.67199 1.53598,-1.59999 1.824,-2.784 m -5.232,-12.288 c -1.60001,2e-5 -2.94401,0.52802 -4.032,1.584 -1.08801,1.05602 -1.76,2.51202 -2.016,4.368 l 11.328,0 c -0.032,-1.69598 -0.49602,-3.10398 -1.392,-4.224 -0.89601,-1.15198 -2.19201,-1.72798 -3.888,-1.728"
         id="path3925"
         style="font-size:48px;font-family:calibre;-inkscape-font-specification:calibre" />
    </g>
    <path
       d="m 174.5625,353.46875 0.34375,1.34375 54.34375,203.8125 0.1875,0.6875 0.71875,0.0625 234.4375,16.28125 1.40625,0.0937 -0.375,-1.34375 -54.34375,-203.8125 -0.1875,-0.6875 -0.71875,-0.0625 -234.4375,-16.28125 -1.375,-0.0937 z m 2.625,2.1875 232.34375,16.125 53.8125,201.78125 L 231,557.4375 177.1875,355.65625 z"
       id="rect2841-7"
       style="font-size:medium;font-style:normal;font-variant:normal;font-weight:normal;font-stretch:normal;text-indent:0;text-align:start;text-decoration:none;line-height:normal;letter-spacing:normal;word-spacing:normal;text-transform:none;direction:ltr;block-progression:tb;writing-mode:lr-tb;text-anchor:start;baseline-shift:baseline;color:#000000;fill:#000000;fill-opacity:1;stroke:none;stroke-width:2;marker:none;visibility:visible;display:inline;overflow:visible;enable-background:accumulate;font-family:Sans;-inkscape-font-specification:Sans" />
    <g
       transform="matrix(0.99768171,0.06805291,-0.06805291,0.99768171,-160.84075,280.84436)"
       id="text2843-5"
       style="font-size:40px;font-style:normal;font-weight:normal;line-height:125%;letter-spacing:0px;word-spacing:0px;fill:#000000;fill-opacity:1;stroke:none;font-family:Sans">
      <path
         d="m 368.70908,58.934888 c -3.85465,-0.005 -4.90173,2.802355 -3.18119,7.846932 1.7281,5.066701 4.69194,7.879219 8.54661,7.8842 3.85464,0.005 4.90173,-2.802356 3.17362,-7.869056 -1.72055,-5.044579 -4.68439,-7.857093 -8.53904,-7.862076 m 0.51313,1.504524 c 2.23987,0.0029 4.20204,1.863144 5.73394,6.354588 1.53944,4.513568 0.84504,6.370386 -1.39483,6.367494 -2.21382,-0.0029 -4.20205,-1.863146 -5.74149,-6.376714 -1.5319,-4.491445 -0.81144,-6.348228 1.40243,-6.345369 m 1.67528,4.911831 c -0.96366,-0.0012 -1.47408,0.639447 -1.20242,1.43596 0.27923,0.81864 1.22732,1.461216 2.19098,1.462462 0.98971,0.0013 1.50013,-0.639416 1.2209,-1.458053 -0.27169,-0.796517 -1.21975,-1.43909 -2.20946,-1.440369"
         id="path3096"
         style="font-size:24px;font-variant:normal;font-stretch:normal;font-family:Fira Code;-inkscape-font-specification:Fira Code" />
      <path
         d="m 415.55947,58.995424 c -3.85464,-0.005 -4.90173,2.802354 -3.18118,7.846932 1.72809,5.066701 4.69195,7.879218 8.5466,7.8842 3.85464,0.005 4.90174,-2.802357 3.17363,-7.869058 -1.72054,-5.044575 -4.6844,-7.857093 -8.53905,-7.862074 m 0.51313,1.504522 c 2.23987,0.0029 4.20205,1.863144 5.73393,6.354588 1.53945,4.513568 0.84505,6.370389 -1.39482,6.367493 -2.21381,-0.0029 -4.20204,-1.863144 -5.74149,-6.376713 -1.5319,-4.491443 -0.81143,-6.348227 1.40233,-6.345367 m 1.67527,4.911828 c -0.96365,-0.0012 -1.47409,0.63945 -1.20241,1.435962 0.27923,0.818638 1.22732,1.461215 2.19097,1.462461 0.98971,0.0013 1.50012,-0.639414 1.22091,-1.458052 -0.27169,-0.796517 -1.21976,-1.43909 -2.20947,-1.440371"
         id="path3098"
         style="font-size:24px;font-variant:normal;font-stretch:normal;font-family:Fira Code;-inkscape-font-specification:Fira Code" />
      <path
         d="m 469.10645,73.041675 -4.68624,-13.739846 -1.92734,-0.0025 -4.37329,2.825146 1.4089,1.306642 3.37216,-2.096625 3.99199,11.704313 -4.40159,-0.0057 0.51313,1.504523 10.33985,0.01336 -0.51314,-1.504523 -3.72443,-0.0048"
         id="path3100"
         style="font-size:24px;font-variant:normal;font-stretch:normal;font-family:Fira Code;-inkscape-font-specification:Fira Code" />
      <path
         d="m 509.26027,59.116493 c -3.85465,-0.005 -4.90174,2.802354 -3.18119,7.846932 1.72811,5.066701 4.69195,7.879217 8.54661,7.884199 3.85463,0.005 4.90173,-2.802356 3.17363,-7.869055 -1.72055,-5.044578 -4.68441,-7.857095 -8.53905,-7.862076 m 0.51313,1.504523 c 2.23986,0.0029 4.20205,1.863144 5.73393,6.354588 1.53946,4.513569 0.84504,6.370387 -1.3948,6.367492 -2.21382,-0.0029 -4.20205,-1.863144 -5.74151,-6.376712 -1.53188,-4.491444 -0.81144,-6.348229 1.40244,-6.345367 m 1.67527,4.911829 c -0.96366,-0.0012 -1.47409,0.639449 -1.20242,1.435961 0.27923,0.81864 1.22733,1.461215 2.19098,1.462461 0.98971,0.0013 1.50012,-0.639416 1.22091,-1.458052 -0.2717,-0.796516 -1.21976,-1.439091 -2.20947,-1.44037"
         id="path3102"
         style="font-size:24px;font-variant:normal;font-stretch:normal;font-family:Fira Code;-inkscape-font-specification:Fira Code" />
      <path
         d="m 556.11067,59.177028 c -3.85467,-0.005 -4.90173,2.802354 -3.18119,7.846931 1.72811,5.0667 4.69194,7.879219 8.5466,7.884199 3.85466,0.005 4.90173,-2.802355 3.17364,-7.869056 -1.72056,-5.044576 -4.68441,-7.857094 -8.53905,-7.862074 m 0.51313,1.504523 c 2.23987,0.0029 4.20205,1.863144 5.73394,6.35459 1.53945,4.513567 0.84505,6.370384 -1.39481,6.367491 -2.21382,-0.0029 -4.20205,-1.863143 -5.74151,-6.376713 -1.53188,-4.491445 -0.81144,-6.348228 1.40233,-6.345368 m 1.67528,4.91183 c -0.96366,-0.0012 -1.47408,0.639447 -1.20242,1.435961 0.27923,0.818639 1.22732,1.461215 2.19098,1.462461 0.98972,0.0013 1.50013,-0.639416 1.2209,-1.458053 -0.27169,-0.796516 -1.21974,-1.43909 -2.20946,-1.440369"
         id="path3104"
         style="font-size:24px;font-variant:normal;font-stretch:normal;font-family:Fira Code;-inkscape-font-specification:Fira Code" />
    </g>
    <g
       transform="matrix(1.0825952,0.07525036,0.25096293,0.94115053,-251.77395,281.80001)"
       id="text2843-3-56"
       style="font-size:40px;font-style:normal;font-weight:normal;line-height:125%;letter-spacing:0px;word-spacing:0px;fill:#000000;fill-opacity:1;stroke:none;font-family:Sans">
      <path
         d="m 408.976,100.73018 0,-14.903997 -1.776,0 -4.92,3.072 0.888,1.416 3.768,-2.28 0,12.695997 -4.056,0 0,1.632 9.528,0 0,-1.632 -3.432,0"
         id="path3107"
         style="font-size:24px;font-variant:normal;font-stretch:normal;font-family:Fira Code;-inkscape-font-specification:Fira Code" />
      <path
         d="m 450.37187,85.562183 c -3.55199,0 -5.4,3.048005 -5.4,8.52 0,5.495994 1.84801,8.543997 5.4,8.543997 3.552,0 5.40001,-3.048003 5.40001,-8.543997 0,-5.471995 -1.84801,-8.52 -5.40001,-8.52 m 0,1.632 c 2.064,0 3.288,2.016004 3.288,6.888 0,4.895995 -1.224,6.911997 -3.288,6.911997 -2.03999,0 -3.288,-2.016002 -3.288,-6.911997 0,-4.871996 1.24801,-6.888 3.288,-6.888 m 0,5.328 c -0.88799,0 -1.56,0.696 -1.56,1.56 0,0.887999 0.67201,1.584 1.56,1.584 0.912,0 1.584,-0.696001 1.584,-1.584 0,-0.864 -0.672,-1.56 -1.584,-1.56"
         id="path3109"
         style="font-size:24px;font-variant:normal;font-stretch:normal;font-family:Fira Code;-inkscape-font-specification:Fira Code" />
      <path
         d="m 493.54375,85.562183 c -3.552,0 -5.4,3.048005 -5.4,8.52 0,5.495994 1.848,8.543997 5.4,8.543997 3.552,0 5.4,-3.048003 5.4,-8.543997 0,-5.471995 -1.848,-8.52 -5.4,-8.52 m 0,1.632 c 2.064,0 3.288,2.016004 3.288,6.888 0,4.895995 -1.224,6.911997 -3.288,6.911997 -2.04,0 -3.288,-2.016002 -3.288,-6.911997 0,-4.871996 1.248,-6.888 3.288,-6.888 m 0,5.328 c -0.888,0 -1.56,0.696 -1.56,1.56 0,0.887999 0.672,1.584 1.56,1.584 0.912,0 1.584,-0.696001 1.584,-1.584 0,-0.864 -0.672,-1.56 -1.584,-1.56"
         id="path3111"
         style="font-size:24px;font-variant:normal;font-stretch:normal;font-family:Fira Code;-inkscape-font-specification:Fira Code" />
      <path
         d="m 536.71563,85.562183 c -3.552,0 -5.40001,3.048005 -5.40001,8.52 0,5.495994 1.84801,8.543997 5.40001,8.543997 3.55199,0 5.4,-3.048003 5.4,-8.543997 0,-5.471995 -1.84801,-8.52 -5.4,-8.52 m 0,1.632 c 2.06399,0 3.288,2.016004 3.288,6.888 0,4.895995 -1.22401,6.911997 -3.288,6.911997 -2.04,0 -3.288,-2.016002 -3.288,-6.911997 0,-4.871996 1.248,-6.888 3.288,-6.888 m 0,5.328 c -0.888,0 -1.56001,0.696 -1.56001,1.56 0,0.887999 0.67201,1.584 1.56001,1.584 0.91199,0 1.58399,-0.696001 1.58399,-1.584 0,-0.864 -0.672,-1.56 -1.58399,-1.56"
         id="path3113"
         style="font-size:24px;font-variant:normal;font-stretch:normal;font-family:Fira Code;-inkscape-font-specification:Fira Code" />
      <path
         d="m 579.8875,85.562183 c -3.552,0 -5.4,3.048005 -5.4,8.52 0,5.495994 1.848,8.543997 5.4,8.543997 3.552,0 5.4,-3.048003 5.4,-8.543997 0,-5.471995 -1.848,-8.52 -5.4,-8.52 m 0,1.632 c 2.064,0 3.288,2.016004 3.288,6.888 0,4.895995 -1.224,6.911997 -3.288,6.911997 -2.04,0 -3.288,-2.016002 -3.288,-6.911997 0,-4.871996 1.248,-6.888 3.288,-6.888 m 0,5.328 c -0.888,0 -1.56,0.696 -1.56,1.56 0,0.887999 0.672,1.584 1.56,1.584 0.912,0 1.584,-0.696001 1.584,-1.584 0,-0.864 -0.672,-1.56 -1.584,-1.56"
         id="path3115"
         style="font-size:24px;font-variant:normal;font-stretch:normal;font-family:Fira Code;-inkscape-font-specification:Fira Code" />
    </g>
    <g
       transform="matrix(1.0825952,0.07525036,0.25096293,0.94115053,-251.77395,281.80001)"
       id="text2843-3-5-9"
       style="font-size:40px;font-style:normal;font-weight:normal;line-height:125%;letter-spacing:0px;word-spacing:0px;fill:#000000;fill-opacity:1;stroke:none;font-family:Sans">
      <path
         d="m 407.2,115.56218 c -3.552,0 -5.4,3.04801 -5.4,8.52 0,5.496 1.848,8.544 5.4,8.544 3.552,0 5.4,-3.048 5.4,-8.544 0,-5.47199 -1.848,-8.52 -5.4,-8.52 m 0,1.632 c 2.064,0 3.288,2.01601 3.288,6.888 0,4.896 -1.224,6.912 -3.288,6.912 -2.04,0 -3.288,-2.016 -3.288,-6.912 0,-4.87199 1.248,-6.888 3.288,-6.888 m 0,5.328 c -0.888,0 -1.56,0.696 -1.56,1.56 0,0.888 0.672,1.584 1.56,1.584 0.912,0 1.584,-0.696 1.584,-1.584 0,-0.864 -0.672,-1.56 -1.584,-1.56"
         id="path3118"
         style="font-size:24px;font-variant:normal;font-stretch:normal;font-family:Fira Code;-inkscape-font-specification:Fira Code" />
      <path
         d="m 452.14787,130.73018 0,-14.904 -1.776,0 -4.92,3.072 0.888,1.416 3.768,-2.28 0,12.696 -4.056,0 0,1.632 9.52801,0 0,-1.632 -3.43201,0"
         id="path3120"
         style="font-size:24px;font-variant:normal;font-stretch:normal;font-family:Fira Code;-inkscape-font-specification:Fira Code" />
      <path
         d="m 493.54375,115.56218 c -3.552,0 -5.4,3.04801 -5.4,8.52 0,5.496 1.848,8.544 5.4,8.544 3.552,0 5.4,-3.048 5.4,-8.544 0,-5.47199 -1.848,-8.52 -5.4,-8.52 m 0,1.632 c 2.064,0 3.288,2.01601 3.288,6.888 0,4.896 -1.224,6.912 -3.288,6.912 -2.04,0 -3.288,-2.016 -3.288,-6.912 0,-4.87199 1.248,-6.888 3.288,-6.888 m 0,5.328 c -0.888,0 -1.56,0.696 -1.56,1.56 0,0.888 0.672,1.584 1.56,1.584 0.912,0 1.584,-0.696 1.584,-1.584 0,-0.864 -0.672,-1.56 -1.584,-1.56"
         id="path3122"
         style="font-size:24px;font-variant:normal;font-stretch:normal;font-family:Fira Code;-inkscape-font-specification:Fira Code" />
      <path
         d="m 536.71563,115.56218 c -3.552,0 -5.40001,3.04801 -5.40001,8.52 0,5.496 1.84801,8.544 5.40001,8.544 3.55199,0 5.4,-3.048 5.4,-8.544 0,-5.47199 -1.84801,-8.52 -5.4,-8.52 m 0,1.632 c 2.06399,0 3.288,2.01601 3.288,6.888 0,4.896 -1.22401,6.912 -3.288,6.912 -2.04,0 -3.288,-2.016 -3.288,-6.912 0,-4.87199 1.248,-6.888 3.288,-6.888 m 0,5.328 c -0.888,0 -1.56001,0.696 -1.56001,1.56 0,0.888 0.67201,1.584 1.56001,1.584 0.91199,0 1.58399,-0.696 1.58399,-1.584 0,-0.864 -0.672,-1.56 -1.58399,-1.56"
         id="path3124"
         style="font-size:24px;font-variant:normal;font-stretch:normal;font-family:Fira Code;-inkscape-font-specification:Fira Code" />
      <path
         d="m 579.8875,115.56218 c -3.552,0 -5.4,3.04801 -5.4,8.52 0,5.496 1.848,8.544 5.4,8.544 3.552,0 5.4,-3.048 5.4,-8.544 0,-5.47199 -1.848,-8.52 -5.4,-8.52 m 0,1.632 c 2.064,0 3.288,2.01601 3.288,6.888 0,4.896 -1.224,6.912 -3.288,6.912 -2.04,0 -3.288,-2.016 -3.288,-6.912 0,-4.87199 1.248,-6.888 3.288,-6.888 m 0,5.328 c -0.888,0 -1.56,0.696 -1.56,1.56 0,0.888 0.672,1.584 1.56,1.584 0.912,0 1.584,-0.696 1.584,-1.584 0,-0.864 -0.672,-1.56 -1.584,-1.56"
         id="path3126"
         style="font-size:24px;font-variant:normal;font-stretch:normal;font-family:Fira Code;-inkscape-font-specification:Fira Code" />
    </g>
    <g
       transform="matrix(1.0825952,0.07525036,0.25096293,0.94115053,-251.77395,281.80001)"
       id="text2843-3-5-6-2"
       style="font-size:40px;font-style:normal;font-weight:normal;line-height:125%;letter-spacing:0px;word-spacing:0px;fill:#000000;fill-opacity:1;stroke:none;font-family:Sans">
      <path
         d="m 407.2,145.56218 c -3.552,0 -5.4,3.04801 -5.4,8.52 0,5.496 1.848,8.544 5.4,8.544 3.552,0 5.4,-3.048 5.4,-8.544 0,-5.47199 -1.848,-8.52 -5.4,-8.52 m 0,1.632 c 2.064,0 3.288,2.01601 3.288,6.888 0,4.896 -1.224,6.912 -3.288,6.912 -2.04,0 -3.288,-2.016 -3.288,-6.912 0,-4.87199 1.248,-6.888 3.288,-6.888 m 0,5.328 c -0.888,0 -1.56,0.696 -1.56,1.56 0,0.888 0.672,1.584 1.56,1.584 0.912,0 1.584,-0.696 1.584,-1.584 0,-0.864 -0.672,-1.56 -1.584,-1.56"
         id="path3129"
         style="font-size:24px;font-variant:normal;font-stretch:normal;font-family:Fira Code;-inkscape-font-specification:Fira Code" />
      <path
         d="m 450.37187,145.56218 c -3.55199,0 -5.4,3.04801 -5.4,8.52 0,5.496 1.84801,8.544 5.4,8.544 3.552,0 5.40001,-3.048 5.40001,-8.544 0,-5.47199 -1.84801,-8.52 -5.40001,-8.52 m 0,1.632 c 2.064,0 3.288,2.01601 3.288,6.888 0,4.896 -1.224,6.912 -3.288,6.912 -2.03999,0 -3.288,-2.016 -3.288,-6.912 0,-4.87199 1.24801,-6.888 3.288,-6.888 m 0,5.328 c -0.88799,0 -1.56,0.696 -1.56,1.56 0,0.888 0.67201,1.584 1.56,1.584 0.912,0 1.584,-0.696 1.584,-1.584 0,-0.864 -0.672,-1.56 -1.584,-1.56"
         id="path3131"
         style="font-size:24px;font-variant:normal;font-stretch:normal;font-family:Fira Code;-inkscape-font-specification:Fira Code" />
      <path
         d="m 493.54375,145.56218 c -3.552,0 -5.4,3.04801 -5.4,8.52 0,5.496 1.848,8.544 5.4,8.544 3.552,0 5.4,-3.048 5.4,-8.544 0,-5.47199 -1.848,-8.52 -5.4,-8.52 m 0,1.632 c 2.064,0 3.288,2.01601 3.288,6.888 0,4.896 -1.224,6.912 -3.288,6.912 -2.04,0 -3.288,-2.016 -3.288,-6.912 0,-4.87199 1.248,-6.888 3.288,-6.888 m 0,5.328 c -0.888,0 -1.56,0.696 -1.56,1.56 0,0.888 0.672,1.584 1.56,1.584 0.912,0 1.584,-0.696 1.584,-1.584 0,-0.864 -0.672,-1.56 -1.584,-1.56"
         id="path3133"
         style="font-size:24px;font-variant:normal;font-stretch:normal;font-family:Fira Code;-inkscape-font-specification:Fira Code" />
      <path
         d="m 536.71563,145.56218 c -3.552,0 -5.40001,3.04801 -5.40001,8.52 0,5.496 1.84801,8.544 5.40001,8.544 3.55199,0 5.4,-3.048 5.4,-8.544 0,-5.47199 -1.84801,-8.52 -5.4,-8.52 m 0,1.632 c 2.06399,0 3.288,2.01601 3.288,6.888 0,4.896 -1.22401,6.912 -3.288,6.912 -2.04,0 -3.288,-2.016 -3.288,-6.912 0,-4.87199 1.248,-6.888 3.288,-6.888 m 0,5.328 c -0.888,0 -1.56001,0.696 -1.56001,1.56 0,0.888 0.67201,1.584 1.56001,1.584 0.91199,0 1.58399,-0.696 1.58399,-1.584 0,-0.864 -0.672,-1.56 -1.58399,-1.56"
         id="path3135"
         style="font-size:24px;font-variant:normal;font-stretch:normal;font-family:Fira Code;-inkscape-font-specification:Fira Code" />
      <path
         d="m 581.6635,160.73018 0,-14.904 -1.776,0 -4.92,3.072 0.888,1.416 3.768,-2.28 0,12.696 -4.056,0 0,1.632 9.528,0 0,-1.632 -3.432,0"
         id="path3137"
         style="font-size:24px;font-variant:normal;font-stretch:normal;font-family:Fira Code;-inkscape-font-specification:Fira Code" />
    </g>
    <g
       transform="matrix(1.0825952,0.07525036,0.25096293,0.94115053,-251.77395,281.80001)"
       id="text2843-3-5-6-7-09"
       style="font-size:40px;font-style:normal;font-weight:normal;line-height:125%;letter-spacing:0px;word-spacing:0px;fill:#000000;fill-opacity:1;stroke:none;font-family:Sans">
      <path
         d="m 407.2,175.56218 c -3.552,0 -5.4,3.04801 -5.4,8.52 0,5.496 1.848,8.544 5.4,8.544 3.552,0 5.4,-3.048 5.4,-8.544 0,-5.47199 -1.848,-8.52 -5.4,-8.52 m 0,1.632 c 2.064,0 3.288,2.01601 3.288,6.888 0,4.896 -1.224,6.912 -3.288,6.912 -2.04,0 -3.288,-2.016 -3.288,-6.912 0,-4.87199 1.248,-6.888 3.288,-6.888 m 0,5.328 c -0.888,0 -1.56,0.696 -1.56,1.56 0,0.888 0.672,1.584 1.56,1.584 0.912,0 1.584,-0.696 1.584,-1.584 0,-0.864 -0.672,-1.56 -1.584,-1.56"
         id="path3140"
         style="font-size:24px;font-variant:normal;font-stretch:normal;font-family:Fira Code;-inkscape-font-specification:Fira Code" />
      <path
         d="m 450.37187,175.56218 c -3.55199,0 -5.4,3.04801 -5.4,8.52 0,5.496 1.84801,8.544 5.4,8.544 3.552,0 5.40001,-3.048 5.40001,-8.544 0,-5.47199 -1.84801,-8.52 -5.40001,-8.52 m 0,1.632 c 2.064,0 3.288,2.01601 3.288,6.888 0,4.896 -1.224,6.912 -3.288,6.912 -2.03999,0 -3.288,-2.016 -3.288,-6.912 0,-4.87199 1.24801,-6.888 3.288,-6.888 m 0,5.328 c -0.88799,0 -1.56,0.696 -1.56,1.56 0,0.888 0.67201,1.584 1.56,1.584 0.912,0 1.584,-0.696 1.584,-1.584 0,-0.864 -0.672,-1.56 -1.584,-1.56"
         id="path3142"
         style="font-size:24px;font-variant:normal;font-stretch:normal;font-family:Fira Code;-inkscape-font-specification:Fira Code" />
      <path
         d="m 493.54375,175.56218 c -3.552,0 -5.4,3.04801 -5.4,8.52 0,5.496 1.848,8.544 5.4,8.544 3.552,0 5.4,-3.048 5.4,-8.544 0,-5.47199 -1.848,-8.52 -5.4,-8.52 m 0,1.632 c 2.064,0 3.288,2.01601 3.288,6.888 0,4.896 -1.224,6.912 -3.288,6.912 -2.04,0 -3.288,-2.016 -3.288,-6.912 0,-4.87199 1.248,-6.888 3.288,-6.888 m 0,5.328 c -0.888,0 -1.56,0.696 -1.56,1.56 0,0.888 0.672,1.584 1.56,1.584 0.912,0 1.584,-0.696 1.584,-1.584 0,-0.864 -0.672,-1.56 -1.584,-1.56"
         id="path3144"
         style="font-size:24px;font-variant:normal;font-stretch:normal;font-family:Fira Code;-inkscape-font-specification:Fira Code" />
      <path
         d="m 538.49162,190.73018 0,-14.904 -1.77599,0 -4.92001,3.072 0.888,1.416 3.76801,-2.28 0,12.696 -4.05601,0 0,1.632 9.52801,0 0,-1.632 -3.43201,0"
         id="path3146"
         style="font-size:24px;font-variant:normal;font-stretch:normal;font-family:Fira Code;-inkscape-font-specification:Fira Code" />
      <path
         d="m 579.8875,175.56218 c -3.552,0 -5.4,3.04801 -5.4,8.52 0,5.496 1.848,8.544 5.4,8.544 3.552,0 5.4,-3.048 5.4,-8.544 0,-5.47199 -1.848,-8.52 -5.4,-8.52 m 0,1.632 c 2.064,0 3.288,2.01601 3.288,6.888 0,4.896 -1.224,6.912 -3.288,6.912 -2.04,0 -3.288,-2.016 -3.288,-6.912 0,-4.87199 1.248,-6.888 3.288,-6.888 m 0,5.328 c -0.888,0 -1.56,0.696 -1.56,1.56 0,0.888 0.672,1.584 1.56,1.584 0.912,0 1.584,-0.696 1.584,-1.584 0,-0.864 -0.672,-1.56 -1.584,-1.56"
         id="path3148"
         style="font-size:24px;font-variant:normal;font-stretch:normal;font-family:Fira Code;-inkscape-font-specification:Fira Code" />
    </g>
    <g
       transform="matrix(1.0825952,0.07525036,0.25096293,0.94115053,-251.77395,281.80001)"
       id="text2843-3-5-6-7-0-6"
       style="font-size:40px;font-style:normal;font-weight:normal;line-height:125%;letter-spacing:0px;word-spacing:0px;fill:#000000;fill-opacity:1;stroke:none;font-family:Sans">
      <path
         d="m 408.976,220.73018 0,-14.904 -1.776,0 -4.92,3.072 0.888,1.416 3.768,-2.28 0,12.696 -4.056,0 0,1.632 9.528,0 0,-1.632 -3.432,0"
         id="path3151"
         style="font-size:24px;font-variant:normal;font-stretch:normal;font-family:Fira Code;-inkscape-font-specification:Fira Code" />
      <path
         d="m 450.37187,205.56218 c -3.55199,0 -5.4,3.04801 -5.4,8.52 0,5.496 1.84801,8.544 5.4,8.544 3.552,0 5.40001,-3.048 5.40001,-8.544 0,-5.47199 -1.84801,-8.52 -5.40001,-8.52 m 0,1.632 c 2.064,0 3.288,2.01601 3.288,6.888 0,4.896 -1.224,6.912 -3.288,6.912 -2.03999,0 -3.288,-2.016 -3.288,-6.912 0,-4.87199 1.24801,-6.888 3.288,-6.888 m 0,5.328 c -0.88799,0 -1.56,0.696 -1.56,1.56 0,0.888 0.67201,1.584 1.56,1.584 0.912,0 1.584,-0.696 1.584,-1.584 0,-0.864 -0.672,-1.56 -1.584,-1.56"
         id="path3153"
         style="font-size:24px;font-variant:normal;font-stretch:normal;font-family:Fira Code;-inkscape-font-specification:Fira Code" />
      <path
         d="m 493.54375,205.56218 c -3.552,0 -5.4,3.04801 -5.4,8.52 0,5.496 1.848,8.544 5.4,8.544 3.552,0 5.4,-3.048 5.4,-8.544 0,-5.47199 -1.848,-8.52 -5.4,-8.52 m 0,1.632 c 2.064,0 3.288,2.01601 3.288,6.888 0,4.896 -1.224,6.912 -3.288,6.912 -2.04,0 -3.288,-2.016 -3.288,-6.912 0,-4.87199 1.248,-6.888 3.288,-6.888 m 0,5.328 c -0.888,0 -1.56,0.696 -1.56,1.56 0,0.888 0.672,1.584 1.56,1.584 0.912,0 1.584,-0.696 1.584,-1.584 0,-0.864 -0.672,-1.56 -1.584,-1.56"
         id="path3155"
         style="font-size:24px;font-variant:normal;font-stretch:normal;font-family:Fira Code;-inkscape-font-specification:Fira Code" />
      <path
         d="m 536.71563,205.56218 c -3.552,0 -5.40001,3.04801 -5.40001,8.52 0,5.496 1.84801,8.544 5.40001,8.544 3.55199,0 5.4,-3.048 5.4,-8.544 0,-5.47199 -1.84801,-8.52 -5.4,-8.52 m 0,1.632 c 2.06399,0 3.288,2.01601 3.288,6.888 0,4.896 -1.22401,6.912 -3.288,6.912 -2.04,0 -3.288,-2.016 -3.288,-6.912 0,-4.87199 1.248,-6.888 3.288,-6.888 m 0,5.328 c -0.888,0 -1.56001,0.696 -1.56001,1.56 0,0.888 0.67201,1.584 1.56001,1.584 0.91199,0 1.58399,-0.696 1.58399,-1.584 0,-0.864 -0.672,-1.56 -1.58399,-1.56"
         id="path3157"
         style="font-size:24px;font-variant:normal;font-stretch:normal;font-family:Fira Code;-inkscape-font-specification:Fira Code" />
      <path
         d="m 579.8875,205.56218 c -3.552,0 -5.4,3.04801 -5.4,8.52 0,5.496 1.848,8.544 5.4,8.544 3.552,0 5.4,-3.048 5.4,-8.544 0,-5.47199 -1.848,-8.52 -5.4,-8.52 m 0,1.632 c 2.064,0 3.288,2.01601 3.288,6.888 0,4.896 -1.224,6.912 -3.288,6.912 -2.04,0 -3.288,-2.016 -3.288,-6.912 0,-4.87199 1.248,-6.888 3.288,-6.888 m 0,5.328 c -0.888,0 -1.56,0.696 -1.56,1.56 0,0.888 0.672,1.584 1.56,1.584 0.912,0 1.584,-0.696 1.584,-1.584 0,-0.864 -0.672,-1.56 -1.584,-1.56"
         id="path3159"
         style="font-size:24px;font-variant:normal;font-stretch:normal;font-family:Fira Code;-inkscape-font-specification:Fira Code" />
    </g>
    <g
       transform="matrix(1.0825952,0.07525036,0.25096293,0.94115053,-251.77395,281.80001)"
       id="text2843-3-5-6-7-0-7-6"
       style="font-size:40px;font-style:normal;font-weight:normal;line-height:125%;letter-spacing:0px;word-spacing:0px;fill:#000000;fill-opacity:1;stroke:none;font-family:Sans">
      <path
         d="m 407.2,235.56218 c -3.552,0 -5.4,3.04801 -5.4,8.52 0,5.496 1.848,8.544 5.4,8.544 3.552,0 5.4,-3.048 5.4,-8.544 0,-5.47199 -1.848,-8.52 -5.4,-8.52 m 0,1.632 c 2.064,0 3.288,2.01601 3.288,6.888 0,4.896 -1.224,6.912 -3.288,6.912 -2.04,0 -3.288,-2.016 -3.288,-6.912 0,-4.87199 1.248,-6.888 3.288,-6.888 m 0,5.328 c -0.888,0 -1.56,0.696 -1.56,1.56 0,0.888 0.672,1.584 1.56,1.584 0.912,0 1.584,-0.696 1.584,-1.584 0,-0.864 -0.672,-1.56 -1.584,-1.56"
         id="path3162"
         style="font-size:24px;font-variant:normal;font-stretch:normal;font-family:Fira Code;-inkscape-font-specification:Fira Code" />
      <path
         d="m 452.14787,250.73018 0,-14.904 -1.776,0 -4.92,3.072 0.888,1.416 3.768,-2.28 0,12.696 -4.056,0 0,1.632 9.52801,0 0,-1.632 -3.43201,0"
         id="path3164"
         style="font-size:24px;font-variant:normal;font-stretch:normal;font-family:Fira Code;-inkscape-font-specification:Fira Code" />
      <path
         d="m 493.54375,235.56218 c -3.552,0 -5.4,3.04801 -5.4,8.52 0,5.496 1.848,8.544 5.4,8.544 3.552,0 5.4,-3.048 5.4,-8.544 0,-5.47199 -1.848,-8.52 -5.4,-8.52 m 0,1.632 c 2.064,0 3.288,2.01601 3.288,6.888 0,4.896 -1.224,6.912 -3.288,6.912 -2.04,0 -3.288,-2.016 -3.288,-6.912 0,-4.87199 1.248,-6.888 3.288,-6.888 m 0,5.328 c -0.888,0 -1.56,0.696 -1.56,1.56 0,0.888 0.672,1.584 1.56,1.584 0.912,0 1.584,-0.696 1.584,-1.584 0,-0.864 -0.672,-1.56 -1.584,-1.56"
         id="path3166"
         style="font-size:24px;font-variant:normal;font-stretch:normal;font-family:Fira Code;-inkscape-font-specification:Fira Code" />
      <path
         d="m 536.71563,235.56218 c -3.552,0 -5.40001,3.04801 -5.40001,8.52 0,5.496 1.84801,8.544 5.40001,8.544 3.55199,0 5.4,-3.048 5.4,-8.544 0,-5.47199 -1.84801,-8.52 -5.4,-8.52 m 0,1.632 c 2.06399,0 3.288,2.01601 3.288,6.888 0,4.896 -1.22401,6.912 -3.288,6.912 -2.04,0 -3.288,-2.016 -3.288,-6.912 0,-4.87199 1.248,-6.888 3.288,-6.888 m 0,5.328 c -0.888,0 -1.56001,0.696 -1.56001,1.56 0,0.888 0.67201,1.584 1.56001,1.584 0.91199,0 1.58399,-0.696 1.58399,-1.584 0,-0.864 -0.672,-1.56 -1.58399,-1.56"
         id="path3168"
         style="font-size:24px;font-variant:normal;font-stretch:normal;font-family:Fira Code;-inkscape-font-specification:Fira Code" />
      <path
         d="m 579.8875,235.56218 c -3.552,0 -5.4,3.04801 -5.4,8.52 0,5.496 1.848,8.544 5.4,8.544 3.552,0 5.4,-3.048 5.4,-8.544 0,-5.47199 -1.848,-8.52 -5.4,-8.52 m 0,1.632 c 2.064,0 3.288,2.01601 3.288,6.888 0,4.896 -1.224,6.912 -3.288,6.912 -2.04,0 -3.288,-2.016 -3.288,-6.912 0,-4.87199 1.248,-6.888 3.288,-6.888 m 0,5.328 c -0.888,0 -1.56,0.696 -1.56,1.56 0,0.888 0.672,1.584 1.56,1.584 0.912,0 1.584,-0.696 1.584,-1.584 0,-0.864 -0.672,-1.56 -1.584,-1.56"
         id="path3170"
         style="font-size:24px;font-variant:normal;font-stretch:normal;font-family:Fira Code;-inkscape-font-specification:Fira Code" />
    </g>
    <path
       d="m 168.96875,361.1875 0.34375,1.34375 54.375,203.8125 0.1875,0.6875 0.6875,0.0625 L 459,583.375 l 1.40625,0.0937 -0.375,-1.34375 -2.1875,-8.25 -0.1875,-0.6875 L 456.9375,573.125 231,557.4375 l -51.96875,-194.875 -0.1875,-0.6875 -0.71875,-0.0625 -7.78125,-0.53125 -1.375,-0.0937 z m 2.625,2.1875 5.6875,0.375 51.96875,194.875 0.1875,0.71875 0.6875,0.0312 225.96875,15.6875 1.625,6.21875 -232.3125,-16.125 -53.8125,-201.78125 z"
       id="rect2841-7-3"
       style="font-size:medium;font-style:normal;font-variant:normal;font-weight:normal;font-stretch:normal;text-indent:0;text-align:start;text-decoration:none;line-height:normal;letter-spacing:normal;word-spacing:normal;text-transform:none;direction:ltr;block-progression:tb;writing-mode:lr-tb;text-anchor:start;baseline-shift:baseline;color:#000000;fill:#000000;fill-opacity:1;stroke:none;stroke-width:2;marker:none;visibility:visible;display:inline;overflow:visible;enable-background:accumulate;font-family:Sans;-inkscape-font-specification:Sans" />
    <path
       d="m 163.40625,368.96875 0.34375,1.34375 54.34375,203.8125 0.1875,0.6875 0.71875,0.0625 234.4375,16.28125 1.375,0.0937 -0.34375,-1.34375 -2.1875,-8.25 -0.1875,-0.6875 -0.71875,-0.0625 -225.96875,-15.6875 -51.96875,-194.875 -0.1875,-0.6875 -0.6875,-0.0625 -7.78125,-0.53125 -1.375,-0.0937 z m 2.625,2.1875 5.65625,0.375 51.96875,194.875 0.1875,0.71875 0.71875,0.0312 225.96875,15.6875 1.625,6.21875 -232.3125,-16.125 -53.8125,-201.78125 z"
       id="rect2841-7-3-3"
       style="font-size:medium;font-style:normal;font-variant:normal;font-weight:normal;font-stretch:normal;text-indent:0;text-align:start;text-decoration:none;line-height:normal;letter-spacing:normal;word-spacing:normal;text-transform:none;direction:ltr;block-progression:tb;writing-mode:lr-tb;text-anchor:start;baseline-shift:baseline;color:#000000;fill:#000000;fill-opacity:1;stroke:none;stroke-width:2;marker:none;visibility:visible;display:inline;overflow:visible;enable-background:accumulate;font-family:Sans;-inkscape-font-specification:Sans" />
  </g>
</svg>
